<?xml version="1.0" encoding="utf-8"?>
<!-- Generator: Adobe Illustrator 25.3.0, SVG Export Plug-In . SVG Version: 6.00 Build 0)  -->
<svg version="1.1" id="Layer_1" xmlns="http://www.w3.org/2000/svg" xmlns:xlink="http://www.w3.org/1999/xlink" x="0px" y="0px"
	 viewBox="0 0 15 16" style="enable-background:new 0 0 15 16;" xml:space="preserve">
<style type="text/css">
	.st0{clip-path:url(#SVGID_2_);fill:#999999;}
	.st1{clip-path:url(#SVGID_2_);fill:#CCCCFF;}
	.st2{clip-path:url(#SVGID_2_);fill:#FFFFFF;}
	.st3{clip-path:url(#SVGID_2_);fill:#339933;}
</style>
<g>
	<defs>
		<path id="SVGID_1_" d="M14,10h1v6H9v-1h1v-1h1v-1h1v-1h1v-1h1V10z M0,0v16h6v-1h1v-1h1v-1h1v-1h1v-1h1v-1h1V9h1V8h1V7h1V6V4l-4-4
			H0z"/>
	</defs>
	<clipPath id="SVGID_2_">
		<use xlink:href="#SVGID_1_"  style="overflow:visible;"/>
	</clipPath>
	<polygon class="st0" points="11,0 0,0 0,16 15,16 15,4 "/>
	<polygon class="st1" points="10,5 10,1 1,1 1,15 14,15 14,5 	"/>
	<path class="st2" d="M7.5,4C7.3,4,7,4.1,6.8,4.2C6.5,3.5,5.8,3,5,3C4.3,3,3.6,3.4,3.3,4C2.5,4.1,2,4.8,2,5.5C2,6.3,2.7,7,3.5,7
		c0.2,0,3.5,0,4,0C8.3,7,9,6.3,9,5.5S8.3,4,7.5,4z"/>
	<polygon class="st2" points="13.4,4 11,1.6 11,4 	"/>
	<path class="st3" d="M1,15v-1l4,-4q2.5,-2.5,5,0l4,4v1z"/>
</g>
</svg>
