<?xml version="1.0" encoding="utf-8"?>
<svg version="1.1" id="Layer_1" xmlns="http://www.w3.org/2000/svg" xmlns:xlink="http://www.w3.org/1999/xlink" 
	 viewBox="0 0 15 16" width="150" height="160">
<g>
	<polygon fill="#999999" points="11,0 0,0 0,16 15,16 15,4 "/>
	<polygon fill="#CCCCFF" points="10,5 10,1 1,1 1,15 14,15 14,5 	"/>
	<path fill="#FFFFFF" d="M7.5,4C7.3,4,7,4.1,6.8,4.2C6.5,3.5,5.8,3,5,3C4.3,3,3.6,3.4,3.3,4C2.5,4.1,2,4.8,2,5.5C2,6.3,2.7,7,3.5,7
		c0.2,0,3.5,0,4,0C8.3,7,9,6.3,9,5.5S8.3,4,7.5,4z"/>
	<polygon fill="#FFFFFF" points="13.4,4 11,1.6 11,4 	"/>
	<path fill="#339933" d="M1,15v-1l4,-4q2.5,-2.5,5,0l4,4v1z"/>
</g>
</svg>
